<svg xmlns="http://www.w3.org/2000/svg" xmlns:xlink="http://www.w3.org/1999/xlink" width="42" height="32" viewBox="0 0 42 32">
  <defs>
    <clipPath id="clip-path">
      <rect id="Rectangle_13" data-name="Rectangle 13" width="42" height="32" transform="translate(1696 50)" stroke="#000" stroke-width="1"/>
    </clipPath>
  </defs>
  <g id="cart-icon" transform="translate(-1696 -50)" clip-path="url(#clip-path)">
    <g id="__TEMP__SVG__" transform="translate(1698.785 50)">
      <circle id="Ellipse_1" data-name="Ellipse 1" cx="2.701" cy="2.701" r="2.701" transform="translate(9.455 27.013)"/>
      <circle id="Ellipse_2" data-name="Ellipse 2" cx="2.701" cy="2.701" r="2.701" transform="translate(28.364 27.013)"/>
      <path id="Path_7" data-name="Path 7" d="M41.276,15.626a2.019,2.019,0,0,0-1.567-.741H14.018L13.5,11.949a1.351,1.351,0,0,0-1.33-1.116h-5.4a1.351,1.351,0,0,0,0,2.7h4.27L14.891,35.38a1.351,1.351,0,0,0,1.33,1.116h21.61a1.351,1.351,0,1,0,0-2.7H17.355l-.476-2.7h20.4a2.032,2.032,0,0,0,1.989-1.628L41.7,17.309A2.026,2.026,0,0,0,41.276,15.626Z" transform="translate(-5.417 -10.833)"/>
    </g>
  </g>
</svg>
