<svg xmlns="http://www.w3.org/2000/svg" width="56.292" height="63.404" viewBox="0 0 56.292 63.404">
  <g id="Logo-header" transform="translate(0 0)">
    <path id="Path_105" data-name="Path 105" d="M124.067,26.749c-3.542-2.851-7.054-5.73-10.567-8.581.317-.4.6-.806.921-1.209.518-.633,1.008-1.3,1.526-1.929,2.649-3.426,3.916-2.591,6.565-4.031,1.181-.633,1.67-2.3,2.851-3.282a37.936,37.936,0,0,0,5.73-4.924c-.029-.173-.058-.374-.086-.547A5.8,5.8,0,0,1,132.734.864c.058-.029.086-.518.23-.749.086-.029.2-.086.288-.115,1.468.23,2.879,1.584,3.858,2.851a1.368,1.368,0,0,1-.2.777c-.259,0-.374.086-.633.4a3.621,3.621,0,0,1-.777,1.7c-.2.029-.4.029-.6.058-1.238,2.447-2.505,4.924-3.714,7.371-.49.893-1.584,1.584-1.987,2.476-.72,1.612-.23,3.282-.691,4.895C127.926,22.488,125.737,24.763,124.067,26.749Z" transform="translate(-80.819)" fill="#00008b" fill-rule="evenodd"/>
    <g id="Group_47" data-name="Group 47" transform="translate(0.518 52.52)">
      <rect id="Rectangle_54" data-name="Rectangle 54" width="44.659" height="10.884" fill="#00008b"/>
    </g>
    <g id="Group_48" data-name="Group 48" transform="translate(2.188 26.634)">
      <path id="Path_106" data-name="Path 106" d="M8.7,117.763,31.159,93H49.472L28.683,117.763Z" transform="translate(-8.383 -92.856)" fill="#00008b"/>
      <path id="Path_107" data-name="Path 107" d="M48.372,92.788,27.813,117.263H8.233l22.2-24.475H48.372m.633-.288H30.318l-.086.086-22.2,24.475-.432.49H27.986l.086-.115L48.631,92.961l.374-.461Z" transform="translate(-7.6 -92.5)" fill="#00008b"/>
    </g>
    <g id="Group_49" data-name="Group 49" transform="translate(0 15.203)">
      <rect id="Rectangle_55" data-name="Rectangle 55" width="45.235" height="11.46" transform="translate(0.288 0.288)" fill="#00008b"/>
      <path id="Path_108" data-name="Path 108" d="M45.235,53.376V64.26H.576V53.376H45.235m.576-.576H0V64.836H45.811V52.8Z" transform="translate(0 -52.8)" fill="#fff"/>
    </g>
  </g>
</svg>
